<?xml version="1.0" encoding="utf-8"?>
<!-- Generator: Adobe Illustrator 23.0.1, SVG Export Plug-In . SVG Version: 6.00 Build 0)  -->
<svg version="1.1" id="Layer_1" xmlns="http://www.w3.org/2000/svg" xmlns:xlink="http://www.w3.org/1999/xlink" x="0px" y="0px"
	 viewBox="0 0 400 300" style="enable-background:new 0 0 400 300;" xml:space="preserve">
<style type="text/css">
	.st0{fill:#878788;}
	.st1{fill:#744734;}
</style>
<g>
	<g>
		<g>
			<g>
				<path class="st0" d="M349.3,159.9v40.4c0,53.9-30.5,79.5-78,79.5s-79-25.6-79-79.2v-40.7L349.3,159.9L349.3,159.9z M201.6,199.1
					c0,47.4,28.8,67.9,69.7,67.9s68.7-20.6,68.7-67.9v-27H201.6V199.1z"/>
			</g>
		</g>
	</g>
	<g>
		<g>
			<path class="st0" d="M199.6,160.3v44.3c0,35.9-11.9,57.1-38.1,57.1c-16.3,0-29.5-10.2-34.2-30.9h-1
				c-3.4,25.8-16.1,41.7-37.9,41.7c-30.2,0-45.7-24.2-45.7-64.5v-47.7L199.6,160.3L199.6,160.3z M52.1,204.8
				c0,35.5,11.1,55.6,36.3,55.6c22.6,0,33-19.9,33-55.6v-32.3H52.1V204.8z M130.8,199.7c0,35.9,10.3,49.9,30.3,49.9
				c20.9,0,29.2-15.7,29.2-48.5v-28.7h-59.5V199.7z"/>
		</g>
	</g>
	<g>
		<path class="st1" d="M51.1,138.8c0-1.7,1.1-2.5,3.3-2.5h0.7c1.1,0,2.1,0,2.9-0.1c0.8,0,1.6-0.1,2.2-0.1c0.6,0,1.2-0.2,1.7-0.4
			c0.5-0.2,0.9-0.4,1.3-0.5c0.4-0.1,0.7-0.3,1-0.7c0.3-0.4,0.6-0.6,0.7-0.8c0.1-0.2,0.3-0.6,0.5-1.2c0.2-0.6,0.3-1,0.4-1.3
			c0.1-0.3,0.2-0.8,0.4-1.6c0.2-0.8,0.4-1.4,0.5-1.9l16.5-65.9c1.3-5.2,1.9-8,1.9-8.6c0-1.1-0.5-1.8-1.5-2.1c-1-0.3-3-0.5-6.2-0.6
			c-1.8,0-3-0.2-3.3-0.6c-0.4-0.3-0.6-0.7-0.6-1.4c0-0.6,0.3-1.2,0.8-1.7c0.5-0.5,1.2-0.7,2-0.7c0.3,0,0.9,0,1.9,0.1
			c1,0,2.7,0.1,5.2,0.2c2.5,0.1,5.7,0.1,9.7,0.1c3.8,0,6.9,0,9.5-0.1c2.5,0,4.3-0.1,5.2-0.1c0.9,0,1.7-0.1,2.3-0.1
			c0.6,0,1-0.1,1.3-0.1c1.8,0,2.6,0.6,2.6,1.8c0,1.7-1.1,2.5-3.3,2.5h-1.5c-5.3,0.1-8.6,0.4-10.2,1c-1.5,0.6-2.7,2.1-3.4,4.4
			l-17.8,72.1c-0.7,3.4-1.1,5.5-1.1,6.3c0,0.9,0.2,1.5,0.7,1.7c0.5,0.2,1.4,0.3,2.9,0.3h10.1c8.5,0,15.3-2,20.3-5.9
			c2.9-2.2,5.3-5.3,7.5-9.1c2.1-3.9,3.8-7.4,4.9-10.4c1.2-3.1,1.9-4.8,2.3-5.2c0.6-0.4,1-0.6,1.4-0.6c1.3,0,1.9,0.6,1.9,1.8
			c0,0.2-3.6,10.5-10.9,31c-0.5,1.1-0.9,1.8-1.2,2.1c-0.4,0.3-1.1,0.5-2.1,0.6H54C52.1,140.6,51.1,140,51.1,138.8z"/>
		<path class="st1" d="M137.1,120.7c0-10.1,3.4-19.5,10.1-28.2c6.8-8.7,14-13,21.9-13c4.8,0,8.6,2.7,11.6,8.2
			c0.9-3.5,2.8-5.3,5.7-5.3c1.2,0,2.1,0.4,2.9,1.1c0.8,0.7,1.2,1.6,1.2,2.6c0,0.3-0.5,1-1.4,2.1l-8.7,34.9
			c-0.9,4.4-1.4,7.8-1.4,10.1c0,3.8,1.2,5.7,3.7,5.7c1.5,0,2.9-0.9,4.2-2.7c1.3-1.8,2.3-3.7,2.9-5.6s1.4-4.3,2.1-7.1
			c0.2-0.7,0.3-1.3,0.4-1.7c0.3-1.7,0.9-2.5,1.8-2.5c1,0,1.6,0.6,1.6,1.8c-0.2,1.1-0.4,2.5-0.8,4.2c-0.4,1.7-1.3,4.3-2.7,7.8
			c-1.5,3.5-3.1,5.9-5,7.3c-1.3,1-3,1.5-5,1.5c-2.6,0-4.9-0.8-7-2.4c-2.1-1.6-3.5-4-4.2-7.3c-5.8,6.5-11.3,9.7-16.7,9.7
			c-5.2,0-9.4-2-12.5-5.9C138.7,132.2,137.1,127,137.1,120.7z M147,126.7c0,3.1,0.6,5.9,1.8,8.4c1.2,2.5,3.1,3.7,5.8,3.7
			c3.1,0,6.2-1.6,9.5-4.8c3.3-3.2,5.5-6,6.7-8.5c0.1-0.5,1.4-5.5,3.9-14.9s3.7-14.6,3.7-15.5c0-2.2-0.8-4.9-2.3-8
			c-1.5-3.1-3.9-4.6-7.1-4.6c-3.9,0-7.8,2.8-11.6,8.4c-2.9,4.2-5.4,10.3-7.4,18.3C148,117.4,147,123.1,147,126.7z"/>
		<path class="st1" d="M205.9,83.5c0-1.6,1-2.4,3-2.4c0.5,0,1.1,0,2.1-0.1c0.9,0,1.6-0.1,2.1-0.1c0.9,0,2.3,0,4,0.1
			c1.8,0,3.1,0.1,4,0.1l5-19.9c0.3-1.1,0.5-1.8,0.6-2.1c0.1-0.2,0.3-0.6,0.6-1.1c0.3-0.5,0.6-0.8,1-0.9c0.4,0,1-0.1,1.7-0.1h2.5
			c2,0,3,0.6,3,1.8c0,1.6-1.8,9-5.4,22.3h11.3c1.9,0,2.9,0.6,2.9,1.8c0,1-0.4,1.7-1.1,2c-0.7,0.3-2,0.5-3.9,0.5h-2.2
			c-0.9,0-2.3,0-4.1-0.1c-1.8,0-3.1-0.1-4.1-0.1c-0.2,0.6-0.4,1.6-0.7,2.8c-0.3,1.3-0.5,2.1-0.7,2.7l-8.4,33.6
			c-0.9,4.2-1.4,7.2-1.4,9c0,3.7,1.3,5.5,3.8,5.5c6,0,11.4-5.9,16.1-17.7c0.5-1.2,1.3-1.8,2.6-1.8c1.2,0,1.9,0.5,1.9,1.5
			c0,2.5-2.1,6.6-6.2,12.4c-4.2,5.8-9,8.7-14.7,8.7c-3.5,0-6.4-1.2-8.6-3.5c-2.2-2.4-3.3-5.3-3.3-8.9c0-2,0.3-4.1,1-6.3l9.6-38
			h-11.1C206.9,85.3,205.9,84.7,205.9,83.5z"/>
		<path class="st1" d="M251.8,83.5c0-1.6,1-2.4,3-2.4c0.5,0,1.1,0,2.1-0.1c0.9,0,1.6-0.1,2.1-0.1c0.9,0,2.3,0,4,0.1
			c1.8,0,3.1,0.1,4,0.1l5-19.9c0.3-1.1,0.5-1.8,0.6-2.1c0.1-0.2,0.3-0.6,0.6-1.1c0.3-0.5,0.6-0.8,1-0.9c0.4,0,1-0.1,1.7-0.1h2.5
			c2,0,3,0.6,3,1.8c0,1.6-1.8,9-5.4,22.3h11.3c1.9,0,2.9,0.6,2.9,1.8c0,1-0.4,1.7-1.1,2c-0.7,0.3-2,0.5-3.9,0.5h-2.2
			c-0.9,0-2.3,0-4.1-0.1c-1.8,0-3.1-0.1-4.1-0.1c-0.2,0.6-0.4,1.6-0.7,2.8c-0.3,1.3-0.5,2.1-0.7,2.7l-8.4,33.6
			c-0.9,4.2-1.4,7.2-1.4,9c0,3.7,1.3,5.5,3.8,5.5c6,0,11.4-5.9,16.1-17.7c0.5-1.2,1.3-1.8,2.6-1.8c1.2,0,1.9,0.5,1.9,1.5
			c0,2.5-2.1,6.6-6.2,12.4c-4.2,5.8-9,8.7-14.7,8.7c-3.5,0-6.4-1.2-8.6-3.5c-2.2-2.4-3.3-5.3-3.3-8.9c0-2,0.3-4.1,1-6.3l9.6-38
			h-11.1C252.8,85.3,251.8,84.7,251.8,83.5z"/>
		<path class="st1" d="M300.4,117.6c0-11.1,3.7-20.3,11-27.4c7.4-7.1,15.2-10.7,23.6-10.7c4,0,7.4,1.1,10.1,3.2c2.7,2.2,4,5,4,8.5
			c0,1.2-0.2,2.4-0.6,3.7c-0.4,1.2-1,2.7-2,4.4c-1,1.7-2.7,3.3-5.2,4.8c-2.5,1.5-5.6,2.6-9.2,3.3c-4.8,0.9-11.3,1.4-19.6,1.4
			c-1.6,6.8-2.3,11.7-2.3,14.9c0,4.1,0.8,7.7,2.5,10.7c1.7,3,4.4,4.5,8,4.5c3.8,0,7.8-1.1,12.2-3.2c4.3-2.1,8.1-5.1,11.3-8.9
			c1.4-1.7,2.4-2.6,3.2-2.6c0.5,0,0.9,0.2,1.3,0.6c0.4,0.4,0.6,0.8,0.6,1.4c0,1.2-1.2,3-3.6,5.4c-2.4,2.4-6,4.8-10.7,7.1
			c-4.7,2.3-9.7,3.5-14.7,3.5c-6,0-10.8-2.2-14.4-6.7C302.3,130.9,300.4,125,300.4,117.6z M313.4,105.6c20.2,0,30.3-4.8,30.3-14.5
			c0-2.5-0.8-4.5-2.4-6.1c-1.6-1.6-3.7-2.4-6.3-2.4c-1.4,0-2.9,0.3-4.6,0.9c-1.7,0.6-3.6,1.6-5.9,3c-2.2,1.4-4.3,3.8-6.3,7.1
			C316.2,97,314.6,101,313.4,105.6z"/>
	</g>
</g>
</svg>
